<svg width="100" height="100" viewBox="0 0 100 100" fill="none" xmlns="http://www.w3.org/2000/svg">
<ellipse opacity="0.2" cx="52" cy="53.5" rx="45" ry="42.5" fill="black"/>
<path d="M95 55.5C95 76.2107 74.8528 93 50 93C25.1472 93 5 76.2107 5 55.5C5 34.7893 25.1472 18 50 18C74.8528 18 95 34.7893 95 55.5Z" fill="#D4D4D4"/>
<path d="M5 45H95V57H5V45Z" fill="#D4D4D4"/>
<path d="M95 45.5C95 66.2107 74.8528 83 50 83C25.1472 83 5 66.2107 5 45.5C5 24.7893 25.1472 8 50 8C74.8528 8 95 24.7893 95 45.5Z" fill="#D4D4D4"/>
<path d="M94 46C94 66.4345 74.3005 83 50 83C25.6995 83 6 66.4345 6 46C6 25.5655 25.6995 9 50 9C74.3005 9 94 25.5655 94 46Z" fill="#E0E0E0"/>
<path d="M91 45.5C91 64.5538 72.6437 80 50 80C27.3563 80 9 64.5538 9 45.5C9 26.4462 27.3563 11 50 11C72.6437 11 91 26.4462 91 45.5Z" fill="#F9F9F9"/>
<path d="M50 7.75C74.647 7.75 94.7592 24.2085 95.2383 44.75H95.25V57.25H95.2002C94.1038 77.3231 74.2457 93.25 50 93.25C25.7543 93.25 5.89616 77.3231 4.7998 57.25H4.75V44.75H4.76172C5.24081 24.2085 25.353 7.75 50 7.75Z" stroke="black" stroke-width="0.5"/>
<ellipse cx="50" cy="55.5" rx="45" ry="37.5" fill="#2E2E32"/>
<rect x="5" y="45" width="90" height="12" fill="#2E2E32"/>
<ellipse cx="50" cy="45.5" rx="45" ry="37.5" fill="#2E2E32"/>
<ellipse cx="50" cy="46" rx="44" ry="37" fill="#585355"/>
<ellipse cx="50" cy="45.5" rx="40" ry="33.5" fill="#494245"/>
</svg>
