<svg width="100" height="100" viewBox="0 0 100 100" fill="none" xmlns="http://www.w3.org/2000/svg">
<path opacity="0.18" d="M51 98C75.8528 98 96 77.8528 96 53C96 28.1472 75.8528 8 51 8C26.1472 8 6 28.1472 6 53C6 77.8528 26.1472 98 51 98Z" fill="#1A0808"/>
<path d="M50 95C74.8528 95 95 74.8528 95 50C95 25.1472 74.8528 5 50 5C25.1472 5 5 25.1472 5 50C5 74.8528 25.1472 95 50 95Z" fill="#1A0D05"/>
<path d="M50 94C74.3005 94 94 74.3005 94 50C94 25.6995 74.3005 6 50 6C25.6995 6 6 25.6995 6 50C6 74.3005 25.6995 94 50 94Z" fill="#B81E1E"/>
<path d="M50 86C69.8823 86 86 69.8823 86 50C86 30.1178 69.8823 14 50 14C30.1178 14 14 30.1178 14 50C14 69.8823 30.1178 86 50 86Z" stroke="white" stroke-width="1.2"/>
<path d="M37.988 28.776L42.916 30.272C42.0067 32.7653 40.936 35.288 39.704 37.84C38.472 40.3627 37.1373 42.7533 35.7 45.012C34.2627 47.2413 32.7667 49.2067 31.212 50.908C31.0653 50.4973 30.8307 49.9547 30.508 49.28C30.1853 48.576 29.848 47.872 29.496 47.168C29.144 46.4347 28.8067 45.848 28.484 45.408C29.7747 44.0293 31.0067 42.46 32.18 40.7C33.3533 38.9107 34.4387 37.004 35.436 34.98C36.4333 32.9267 37.284 30.8587 37.988 28.776ZM34.292 41.052L39 36.3L39.396 36.476V70.048H34.292V41.052ZM46.304 37.488H67.468V41.492H46.304V37.488ZM46.304 44.22H67.512V48.224H46.304V44.22ZM43.972 50.952H68.04V55.44H43.972V50.952ZM54.752 32.384H59.68V53.152H54.752V32.384ZM58.8 57.068L61.792 55.748C62.5253 56.5987 63.2 57.552 63.816 58.608C64.4613 59.664 64.9307 60.588 65.224 61.38L62.056 62.876C61.792 62.084 61.3373 61.1453 60.692 60.06C60.076 58.9453 59.4453 57.948 58.8 57.068ZM53.784 57.464L57.172 56.364C57.7293 57.5667 58.228 58.8867 58.668 60.324C59.108 61.7613 59.4013 63.008 59.548 64.064L55.94 65.296C55.8227 64.24 55.5587 62.9787 55.148 61.512C54.7667 60.0453 54.312 58.696 53.784 57.464ZM48.504 57.596L52.156 56.936C52.5373 58.344 52.8013 59.8693 52.948 61.512C53.0947 63.1547 53.1387 64.5773 53.08 65.78L49.164 66.528C49.252 65.3253 49.2373 63.9027 49.12 62.26C49.032 60.588 48.8267 59.0333 48.504 57.596ZM43.532 56.452L47.492 57.64C47.2867 58.8427 47.0227 60.0893 46.7 61.38C46.3773 62.6413 45.9813 63.8587 45.512 65.032C45.072 66.176 44.5147 67.1733 43.84 68.024L40.012 65.868C40.628 65.076 41.156 64.1667 41.596 63.14C42.036 62.1133 42.4173 61.028 42.74 59.884C43.0627 58.7107 43.3267 57.5667 43.532 56.452ZM43.972 30.448H68.7V34.936H48.944V53.064H43.972V30.448ZM65.4 50.952H70.24C70.24 50.952 70.2253 51.2013 70.196 51.7C70.196 52.1693 70.1667 52.5653 70.108 52.888C69.9613 56.144 69.7853 58.8133 69.58 60.896C69.404 62.9493 69.184 64.548 68.92 65.692C68.656 66.8067 68.3187 67.6133 67.908 68.112C67.468 68.64 66.9987 69.0067 66.5 69.212C66.0307 69.4467 65.4733 69.608 64.828 69.696C64.2707 69.8133 63.552 69.872 62.672 69.872C61.8213 69.9013 60.912 69.9013 59.944 69.872C59.9147 69.1387 59.7827 68.3613 59.548 67.54C59.3133 66.7187 59.02 66 58.668 65.384C59.46 65.4427 60.1933 65.4867 60.868 65.516C61.572 65.5453 62.0853 65.56 62.408 65.56C62.7307 65.56 62.9947 65.5307 63.2 65.472C63.4053 65.384 63.6107 65.2373 63.816 65.032C64.0507 64.7387 64.256 64.1227 64.432 63.184C64.6373 62.2453 64.8133 60.852 64.96 59.004C65.136 57.156 65.2827 54.7213 65.4 51.7V50.952Z" fill="white"/>
</svg>
